<?xml version="1.0" encoding="UTF-8" standalone="no"?>
<!DOCTYPE svg PUBLIC "-//W3C//DTD SVG 1.1//EN" "http://www.w3.org/Graphics/SVG/1.1/DTD/svg11.dtd">
<svg width="100%" height="100%" viewBox="0 0 160 22" version="1.1" xmlns="http://www.w3.org/2000/svg" xmlns:xlink="http://www.w3.org/1999/xlink" xml:space="preserve" xmlns:serif="http://www.serif.com/" style="fill-rule:evenodd;clip-rule:evenodd;stroke-linecap:round;stroke-miterlimit:10;">
    <g transform="matrix(1.39533,0,0,1.39533,-2.15689,-4.67927)">
        <g transform="matrix(12,0,0,12,1.44979,18.931)">
            <path d="M0.008,-0.517L0.094,-0.517L0.094,-0.672L0.208,-0.672L0.208,-0.517L0.311,-0.517L0.311,-0.432L0.208,-0.432L0.208,-0.156C0.208,-0.144 0.209,-0.134 0.21,-0.125C0.211,-0.116 0.213,-0.109 0.217,-0.103C0.22,-0.097 0.226,-0.092 0.233,-0.09C0.24,-0.087 0.25,-0.085 0.263,-0.085C0.271,-0.085 0.279,-0.085 0.287,-0.086C0.295,-0.086 0.303,-0.087 0.311,-0.089L0.311,-0.001C0.298,0 0.286,0.002 0.274,0.003C0.262,0.004 0.25,0.005 0.237,0.005C0.207,0.005 0.183,0.002 0.165,-0.004C0.146,-0.009 0.132,-0.018 0.122,-0.029C0.111,-0.04 0.104,-0.053 0.101,-0.07C0.097,-0.087 0.095,-0.106 0.094,-0.127L0.094,-0.432L0.008,-0.432L0.008,-0.517Z" style="fill:rgb(230,237,243);fill-rule:nonzero;"/>
        </g>
        <g transform="matrix(12,0,0,12,5.44579,18.931)">
            <path d="M0.493,-0.115C0.493,-0.101 0.495,-0.091 0.499,-0.085C0.502,-0.079 0.509,-0.076 0.52,-0.076L0.532,-0.076C0.537,-0.076 0.542,-0.077 0.548,-0.078L0.548,0.001C0.544,0.002 0.539,0.004 0.533,0.006C0.526,0.007 0.52,0.009 0.513,0.01C0.506,0.011 0.5,0.012 0.493,0.013C0.486,0.014 0.481,0.014 0.476,0.014C0.453,0.014 0.433,0.009 0.418,-0C0.403,-0.009 0.393,-0.026 0.388,-0.049C0.365,-0.027 0.337,-0.011 0.305,-0.001C0.272,0.009 0.24,0.014 0.209,0.014C0.186,0.014 0.163,0.011 0.142,0.005C0.121,-0.002 0.102,-0.011 0.086,-0.024C0.069,-0.036 0.056,-0.052 0.047,-0.071C0.037,-0.09 0.032,-0.112 0.032,-0.137C0.032,-0.169 0.038,-0.195 0.05,-0.215C0.061,-0.235 0.077,-0.251 0.096,-0.262C0.115,-0.273 0.136,-0.282 0.16,-0.287C0.183,-0.292 0.207,-0.295 0.231,-0.298C0.252,-0.302 0.271,-0.305 0.29,-0.307C0.309,-0.308 0.325,-0.311 0.34,-0.315C0.354,-0.319 0.365,-0.325 0.374,-0.334C0.382,-0.342 0.386,-0.354 0.386,-0.371C0.386,-0.386 0.383,-0.398 0.376,-0.407C0.369,-0.416 0.36,-0.424 0.35,-0.429C0.339,-0.434 0.328,-0.437 0.315,-0.439C0.302,-0.44 0.29,-0.441 0.279,-0.441C0.247,-0.441 0.221,-0.434 0.2,-0.421C0.179,-0.408 0.168,-0.387 0.165,-0.359L0.051,-0.359C0.053,-0.392 0.061,-0.42 0.075,-0.442C0.089,-0.464 0.107,-0.482 0.129,-0.495C0.15,-0.508 0.175,-0.518 0.202,-0.523C0.229,-0.528 0.257,-0.531 0.286,-0.531C0.311,-0.531 0.336,-0.528 0.361,-0.523C0.386,-0.518 0.408,-0.509 0.428,-0.497C0.447,-0.485 0.463,-0.47 0.475,-0.451C0.487,-0.432 0.493,-0.408 0.493,-0.381L0.493,-0.115ZM0.379,-0.259C0.362,-0.248 0.34,-0.241 0.315,-0.239C0.29,-0.236 0.264,-0.233 0.239,-0.228C0.227,-0.226 0.215,-0.223 0.204,-0.22C0.193,-0.216 0.183,-0.211 0.174,-0.205C0.165,-0.198 0.159,-0.19 0.154,-0.18C0.149,-0.169 0.146,-0.157 0.146,-0.142C0.146,-0.129 0.15,-0.119 0.157,-0.11C0.164,-0.101 0.173,-0.094 0.184,-0.09C0.194,-0.085 0.205,-0.081 0.218,-0.079C0.23,-0.077 0.241,-0.076 0.251,-0.076C0.264,-0.076 0.277,-0.078 0.292,-0.081C0.307,-0.084 0.321,-0.09 0.334,-0.098C0.346,-0.106 0.357,-0.116 0.366,-0.129C0.375,-0.141 0.379,-0.156 0.379,-0.174L0.379,-0.259Z" style="fill:rgb(230,237,243);fill-rule:nonzero;"/>
        </g>
        <g transform="matrix(12,0,0,12,12.1178,18.931)">
            <path d="M0.063,-0.714L0.177,-0.714L0.177,-0.45L0.179,-0.45C0.187,-0.463 0.197,-0.474 0.208,-0.484C0.219,-0.494 0.232,-0.503 0.246,-0.51C0.259,-0.517 0.274,-0.522 0.289,-0.526C0.304,-0.529 0.318,-0.531 0.333,-0.531C0.374,-0.531 0.409,-0.524 0.44,-0.51C0.47,-0.495 0.495,-0.475 0.515,-0.451C0.535,-0.426 0.55,-0.396 0.56,-0.363C0.57,-0.33 0.575,-0.294 0.575,-0.256C0.575,-0.221 0.571,-0.188 0.562,-0.155C0.553,-0.122 0.539,-0.093 0.521,-0.069C0.502,-0.044 0.479,-0.024 0.451,-0.009C0.423,0.007 0.39,0.014 0.352,0.014C0.335,0.014 0.317,0.013 0.3,0.011C0.282,0.008 0.265,0.004 0.249,-0.003C0.233,-0.01 0.219,-0.018 0.206,-0.029C0.193,-0.04 0.182,-0.054 0.173,-0.071L0.171,-0.071L0.171,-0L0.063,-0L0.063,-0.714ZM0.461,-0.258C0.461,-0.281 0.458,-0.304 0.452,-0.326C0.446,-0.348 0.437,-0.368 0.425,-0.385C0.413,-0.402 0.398,-0.415 0.38,-0.426C0.362,-0.436 0.341,-0.441 0.318,-0.441C0.27,-0.441 0.234,-0.424 0.21,-0.391C0.185,-0.358 0.173,-0.313 0.173,-0.258C0.173,-0.232 0.176,-0.208 0.183,-0.186C0.189,-0.163 0.198,-0.144 0.211,-0.128C0.224,-0.112 0.239,-0.099 0.257,-0.09C0.274,-0.081 0.295,-0.076 0.318,-0.076C0.344,-0.076 0.366,-0.081 0.384,-0.092C0.402,-0.103 0.417,-0.117 0.429,-0.134C0.44,-0.151 0.448,-0.17 0.454,-0.192C0.459,-0.213 0.461,-0.235 0.461,-0.258Z" style="fill:rgb(230,237,243);fill-rule:nonzero;"/>
        </g>
        <g transform="matrix(12,0,0,12,19.4498,18.931)">
            <rect x="0.063" y="-0.714" width="0.114" height="0.714" style="fill:rgb(230,237,243);fill-rule:nonzero;"/>
        </g>
        <g transform="matrix(12,0,0,12,22.3418,18.931)">
            <path d="M0.415,-0.304C0.414,-0.322 0.41,-0.339 0.404,-0.356C0.397,-0.373 0.389,-0.387 0.378,-0.4C0.367,-0.412 0.353,-0.422 0.338,-0.43C0.322,-0.437 0.304,-0.441 0.285,-0.441C0.265,-0.441 0.247,-0.438 0.231,-0.431C0.214,-0.424 0.2,-0.414 0.189,-0.402C0.177,-0.389 0.168,-0.375 0.161,-0.358C0.154,-0.341 0.15,-0.323 0.149,-0.304L0.415,-0.304ZM0.149,-0.229C0.149,-0.209 0.152,-0.19 0.158,-0.171C0.163,-0.152 0.172,-0.136 0.183,-0.122C0.194,-0.108 0.209,-0.097 0.226,-0.089C0.243,-0.08 0.264,-0.076 0.288,-0.076C0.321,-0.076 0.348,-0.083 0.369,-0.098C0.389,-0.112 0.404,-0.133 0.414,-0.162L0.522,-0.162C0.516,-0.134 0.506,-0.109 0.491,-0.087C0.476,-0.065 0.459,-0.047 0.438,-0.032C0.417,-0.017 0.394,-0.005 0.369,0.003C0.343,0.01 0.316,0.014 0.288,0.014C0.247,0.014 0.211,0.007 0.18,-0.006C0.149,-0.019 0.122,-0.038 0.101,-0.062C0.079,-0.086 0.063,-0.115 0.052,-0.148C0.041,-0.181 0.035,-0.218 0.035,-0.258C0.035,-0.295 0.041,-0.329 0.053,-0.363C0.064,-0.396 0.081,-0.425 0.103,-0.45C0.124,-0.474 0.15,-0.494 0.181,-0.509C0.212,-0.524 0.246,-0.531 0.285,-0.531C0.326,-0.531 0.362,-0.523 0.395,-0.506C0.427,-0.489 0.454,-0.466 0.475,-0.438C0.496,-0.41 0.512,-0.378 0.522,-0.342C0.531,-0.305 0.534,-0.268 0.529,-0.229L0.149,-0.229Z" style="fill:rgb(230,237,243);fill-rule:nonzero;"/>
        </g>
        <g transform="matrix(12,0,0,12,32.3498,18.931)">
            <path d="M0.297,0.014C0.256,0.014 0.219,0.007 0.187,-0.007C0.154,-0.02 0.127,-0.039 0.105,-0.063C0.082,-0.087 0.065,-0.116 0.054,-0.149C0.042,-0.182 0.036,-0.219 0.036,-0.259C0.036,-0.298 0.042,-0.335 0.054,-0.368C0.065,-0.401 0.082,-0.43 0.105,-0.454C0.127,-0.478 0.154,-0.497 0.187,-0.511C0.219,-0.524 0.256,-0.531 0.297,-0.531C0.338,-0.531 0.375,-0.524 0.408,-0.511C0.44,-0.497 0.467,-0.478 0.49,-0.454C0.512,-0.43 0.529,-0.401 0.541,-0.368C0.552,-0.335 0.558,-0.298 0.558,-0.259C0.558,-0.219 0.552,-0.182 0.541,-0.149C0.529,-0.116 0.512,-0.087 0.49,-0.063C0.467,-0.039 0.44,-0.02 0.408,-0.007C0.375,0.007 0.338,0.014 0.297,0.014ZM0.297,-0.076C0.322,-0.076 0.344,-0.081 0.363,-0.092C0.382,-0.103 0.397,-0.117 0.409,-0.134C0.421,-0.151 0.43,-0.171 0.436,-0.193C0.441,-0.214 0.444,-0.236 0.444,-0.259C0.444,-0.281 0.441,-0.303 0.436,-0.325C0.43,-0.347 0.421,-0.367 0.409,-0.384C0.397,-0.401 0.382,-0.414 0.363,-0.425C0.344,-0.436 0.322,-0.441 0.297,-0.441C0.272,-0.441 0.25,-0.436 0.231,-0.425C0.212,-0.414 0.197,-0.401 0.185,-0.384C0.173,-0.367 0.164,-0.347 0.159,-0.325C0.153,-0.303 0.15,-0.281 0.15,-0.259C0.15,-0.236 0.153,-0.214 0.159,-0.193C0.164,-0.171 0.173,-0.151 0.185,-0.134C0.197,-0.117 0.212,-0.103 0.231,-0.092C0.25,-0.081 0.272,-0.076 0.297,-0.076Z" style="fill:rgb(230,237,243);fill-rule:nonzero;"/>
        </g>
        <g transform="matrix(12,0,0,12,39.4658,18.931)">
            <path d="M0.009,-0.517L0.094,-0.517L0.094,-0.56C0.094,-0.593 0.098,-0.619 0.106,-0.64C0.114,-0.66 0.125,-0.676 0.138,-0.687C0.151,-0.698 0.167,-0.705 0.184,-0.709C0.2,-0.712 0.218,-0.714 0.237,-0.714C0.274,-0.714 0.3,-0.712 0.317,-0.707L0.317,-0.618C0.31,-0.62 0.302,-0.622 0.294,-0.623C0.285,-0.624 0.275,-0.624 0.264,-0.624C0.249,-0.624 0.236,-0.62 0.225,-0.613C0.214,-0.606 0.208,-0.591 0.208,-0.57L0.208,-0.517L0.305,-0.517L0.305,-0.432L0.208,-0.432L0.208,-0L0.094,-0L0.094,-0.432L0.009,-0.432L0.009,-0.517Z" style="fill:rgb(230,237,243);fill-rule:nonzero;"/>
        </g>
        <g transform="matrix(12,0,0,12,46.5818,18.931)">
            <path d="M0.409,-0.344C0.404,-0.376 0.392,-0.4 0.371,-0.417C0.349,-0.433 0.323,-0.441 0.291,-0.441C0.276,-0.441 0.261,-0.439 0.244,-0.434C0.227,-0.428 0.212,-0.419 0.198,-0.406C0.184,-0.392 0.172,-0.373 0.163,-0.349C0.154,-0.324 0.149,-0.292 0.149,-0.253C0.149,-0.232 0.152,-0.21 0.157,-0.189C0.162,-0.168 0.169,-0.149 0.181,-0.132C0.192,-0.115 0.206,-0.102 0.223,-0.092C0.24,-0.081 0.261,-0.076 0.286,-0.076C0.319,-0.076 0.347,-0.086 0.369,-0.107C0.39,-0.128 0.404,-0.157 0.409,-0.194L0.523,-0.194C0.512,-0.127 0.487,-0.075 0.447,-0.04C0.406,-0.004 0.353,0.014 0.286,0.014C0.245,0.014 0.21,0.007 0.179,-0.007C0.148,-0.02 0.121,-0.039 0.1,-0.063C0.079,-0.086 0.063,-0.114 0.052,-0.147C0.041,-0.18 0.035,-0.215 0.035,-0.253C0.035,-0.292 0.04,-0.328 0.051,-0.362C0.062,-0.396 0.078,-0.426 0.099,-0.451C0.12,-0.475 0.147,-0.495 0.179,-0.51C0.21,-0.524 0.247,-0.531 0.29,-0.531C0.32,-0.531 0.349,-0.527 0.376,-0.52C0.403,-0.512 0.427,-0.5 0.448,-0.485C0.468,-0.47 0.486,-0.45 0.499,-0.427C0.512,-0.404 0.52,-0.376 0.523,-0.344L0.409,-0.344Z" style="fill:rgb(230,237,243);fill-rule:nonzero;"/>
        </g>
        <g transform="matrix(12,0,0,12,53.2538,18.931)">
            <path d="M0.297,0.014C0.256,0.014 0.219,0.007 0.187,-0.007C0.154,-0.02 0.127,-0.039 0.105,-0.063C0.082,-0.087 0.065,-0.116 0.054,-0.149C0.042,-0.182 0.036,-0.219 0.036,-0.259C0.036,-0.298 0.042,-0.335 0.054,-0.368C0.065,-0.401 0.082,-0.43 0.105,-0.454C0.127,-0.478 0.154,-0.497 0.187,-0.511C0.219,-0.524 0.256,-0.531 0.297,-0.531C0.338,-0.531 0.375,-0.524 0.408,-0.511C0.44,-0.497 0.467,-0.478 0.49,-0.454C0.512,-0.43 0.529,-0.401 0.541,-0.368C0.552,-0.335 0.558,-0.298 0.558,-0.259C0.558,-0.219 0.552,-0.182 0.541,-0.149C0.529,-0.116 0.512,-0.087 0.49,-0.063C0.467,-0.039 0.44,-0.02 0.408,-0.007C0.375,0.007 0.338,0.014 0.297,0.014ZM0.297,-0.076C0.322,-0.076 0.344,-0.081 0.363,-0.092C0.382,-0.103 0.397,-0.117 0.409,-0.134C0.421,-0.151 0.43,-0.171 0.436,-0.193C0.441,-0.214 0.444,-0.236 0.444,-0.259C0.444,-0.281 0.441,-0.303 0.436,-0.325C0.43,-0.347 0.421,-0.367 0.409,-0.384C0.397,-0.401 0.382,-0.414 0.363,-0.425C0.344,-0.436 0.322,-0.441 0.297,-0.441C0.272,-0.441 0.25,-0.436 0.231,-0.425C0.212,-0.414 0.197,-0.401 0.185,-0.384C0.173,-0.367 0.164,-0.347 0.159,-0.325C0.153,-0.303 0.15,-0.281 0.15,-0.259C0.15,-0.236 0.153,-0.214 0.159,-0.193C0.164,-0.171 0.173,-0.151 0.185,-0.134C0.197,-0.117 0.212,-0.103 0.231,-0.092C0.25,-0.081 0.272,-0.076 0.297,-0.076Z" style="fill:rgb(230,237,243);fill-rule:nonzero;"/>
        </g>
        <g transform="matrix(12,0,0,12,60.3698,18.931)">
            <path d="M0.06,-0.517L0.168,-0.517L0.168,-0.441L0.17,-0.439C0.187,-0.468 0.21,-0.49 0.238,-0.507C0.266,-0.523 0.297,-0.531 0.331,-0.531C0.388,-0.531 0.432,-0.516 0.465,-0.487C0.498,-0.458 0.514,-0.414 0.514,-0.355L0.514,-0L0.4,-0L0.4,-0.325C0.399,-0.366 0.39,-0.395 0.374,-0.414C0.358,-0.432 0.333,-0.441 0.299,-0.441C0.28,-0.441 0.262,-0.438 0.247,-0.431C0.232,-0.424 0.219,-0.414 0.208,-0.402C0.197,-0.389 0.189,-0.375 0.183,-0.358C0.177,-0.341 0.174,-0.324 0.174,-0.305L0.174,-0L0.06,-0L0.06,-0.517Z" style="fill:rgb(230,237,243);fill-rule:nonzero;"/>
        </g>
        <g transform="matrix(12,0,0,12,67.2578,18.931)">
            <path d="M0.008,-0.517L0.094,-0.517L0.094,-0.672L0.208,-0.672L0.208,-0.517L0.311,-0.517L0.311,-0.432L0.208,-0.432L0.208,-0.156C0.208,-0.144 0.209,-0.134 0.21,-0.125C0.211,-0.116 0.213,-0.109 0.217,-0.103C0.22,-0.097 0.226,-0.092 0.233,-0.09C0.24,-0.087 0.25,-0.085 0.263,-0.085C0.271,-0.085 0.279,-0.085 0.287,-0.086C0.295,-0.086 0.303,-0.087 0.311,-0.089L0.311,-0.001C0.298,0 0.286,0.002 0.274,0.003C0.262,0.004 0.25,0.005 0.237,0.005C0.207,0.005 0.183,0.002 0.165,-0.004C0.146,-0.009 0.132,-0.018 0.122,-0.029C0.111,-0.04 0.104,-0.053 0.101,-0.07C0.097,-0.087 0.095,-0.106 0.094,-0.127L0.094,-0.432L0.008,-0.432L0.008,-0.517Z" style="fill:rgb(230,237,243);fill-rule:nonzero;"/>
        </g>
        <g transform="matrix(12,0,0,12,71.2538,18.931)">
            <path d="M0.415,-0.304C0.414,-0.322 0.41,-0.339 0.404,-0.356C0.397,-0.373 0.389,-0.387 0.378,-0.4C0.367,-0.412 0.353,-0.422 0.338,-0.43C0.322,-0.437 0.304,-0.441 0.285,-0.441C0.265,-0.441 0.247,-0.438 0.231,-0.431C0.214,-0.424 0.2,-0.414 0.189,-0.402C0.177,-0.389 0.168,-0.375 0.161,-0.358C0.154,-0.341 0.15,-0.323 0.149,-0.304L0.415,-0.304ZM0.149,-0.229C0.149,-0.209 0.152,-0.19 0.158,-0.171C0.163,-0.152 0.172,-0.136 0.183,-0.122C0.194,-0.108 0.209,-0.097 0.226,-0.089C0.243,-0.08 0.264,-0.076 0.288,-0.076C0.321,-0.076 0.348,-0.083 0.369,-0.098C0.389,-0.112 0.404,-0.133 0.414,-0.162L0.522,-0.162C0.516,-0.134 0.506,-0.109 0.491,-0.087C0.476,-0.065 0.459,-0.047 0.438,-0.032C0.417,-0.017 0.394,-0.005 0.369,0.003C0.343,0.01 0.316,0.014 0.288,0.014C0.247,0.014 0.211,0.007 0.18,-0.006C0.149,-0.019 0.122,-0.038 0.101,-0.062C0.079,-0.086 0.063,-0.115 0.052,-0.148C0.041,-0.181 0.035,-0.218 0.035,-0.258C0.035,-0.295 0.041,-0.329 0.053,-0.363C0.064,-0.396 0.081,-0.425 0.103,-0.45C0.124,-0.474 0.15,-0.494 0.181,-0.509C0.212,-0.524 0.246,-0.531 0.285,-0.531C0.326,-0.531 0.362,-0.523 0.395,-0.506C0.427,-0.489 0.454,-0.466 0.475,-0.438C0.496,-0.41 0.512,-0.378 0.522,-0.342C0.531,-0.305 0.534,-0.268 0.529,-0.229L0.149,-0.229Z" style="fill:rgb(230,237,243);fill-rule:nonzero;"/>
        </g>
        <g transform="matrix(12,0,0,12,77.9258,18.931)">
            <path d="M0.06,-0.517L0.168,-0.517L0.168,-0.441L0.17,-0.439C0.187,-0.468 0.21,-0.49 0.238,-0.507C0.266,-0.523 0.297,-0.531 0.331,-0.531C0.388,-0.531 0.432,-0.516 0.465,-0.487C0.498,-0.458 0.514,-0.414 0.514,-0.355L0.514,-0L0.4,-0L0.4,-0.325C0.399,-0.366 0.39,-0.395 0.374,-0.414C0.358,-0.432 0.333,-0.441 0.299,-0.441C0.28,-0.441 0.262,-0.438 0.247,-0.431C0.232,-0.424 0.219,-0.414 0.208,-0.402C0.197,-0.389 0.189,-0.375 0.183,-0.358C0.177,-0.341 0.174,-0.324 0.174,-0.305L0.174,-0L0.06,-0L0.06,-0.517Z" style="fill:rgb(230,237,243);fill-rule:nonzero;"/>
        </g>
        <g transform="matrix(12,0,0,12,84.8138,18.931)">
            <path d="M0.008,-0.517L0.094,-0.517L0.094,-0.672L0.208,-0.672L0.208,-0.517L0.311,-0.517L0.311,-0.432L0.208,-0.432L0.208,-0.156C0.208,-0.144 0.209,-0.134 0.21,-0.125C0.211,-0.116 0.213,-0.109 0.217,-0.103C0.22,-0.097 0.226,-0.092 0.233,-0.09C0.24,-0.087 0.25,-0.085 0.263,-0.085C0.271,-0.085 0.279,-0.085 0.287,-0.086C0.295,-0.086 0.303,-0.087 0.311,-0.089L0.311,-0.001C0.298,0 0.286,0.002 0.274,0.003C0.262,0.004 0.25,0.005 0.237,0.005C0.207,0.005 0.183,0.002 0.165,-0.004C0.146,-0.009 0.132,-0.018 0.122,-0.029C0.111,-0.04 0.104,-0.053 0.101,-0.07C0.097,-0.087 0.095,-0.106 0.094,-0.127L0.094,-0.432L0.008,-0.432L0.008,-0.517Z" style="fill:rgb(230,237,243);fill-rule:nonzero;"/>
        </g>
        <g transform="matrix(12,0,0,12,88.8098,18.931)">
            <path d="M0.146,-0.166C0.149,-0.133 0.162,-0.109 0.184,-0.096C0.206,-0.083 0.232,-0.076 0.263,-0.076C0.274,-0.076 0.286,-0.077 0.3,-0.079C0.313,-0.08 0.326,-0.083 0.338,-0.088C0.35,-0.093 0.36,-0.099 0.368,-0.109C0.375,-0.117 0.379,-0.129 0.378,-0.144C0.377,-0.159 0.372,-0.171 0.362,-0.18C0.352,-0.189 0.339,-0.197 0.324,-0.203C0.308,-0.208 0.29,-0.213 0.27,-0.217C0.25,-0.221 0.23,-0.225 0.209,-0.23C0.188,-0.235 0.167,-0.24 0.148,-0.247C0.128,-0.254 0.11,-0.263 0.095,-0.274C0.079,-0.285 0.066,-0.3 0.057,-0.318C0.048,-0.335 0.043,-0.357 0.043,-0.383C0.043,-0.411 0.05,-0.435 0.064,-0.454C0.077,-0.472 0.095,-0.488 0.116,-0.5C0.136,-0.511 0.16,-0.519 0.186,-0.524C0.211,-0.529 0.236,-0.531 0.259,-0.531C0.286,-0.531 0.311,-0.528 0.336,-0.523C0.36,-0.517 0.382,-0.508 0.402,-0.495C0.421,-0.482 0.438,-0.466 0.451,-0.446C0.464,-0.425 0.472,-0.401 0.475,-0.372L0.356,-0.372C0.351,-0.399 0.338,-0.418 0.319,-0.427C0.299,-0.436 0.276,-0.441 0.251,-0.441C0.243,-0.441 0.234,-0.44 0.223,-0.439C0.212,-0.438 0.201,-0.435 0.192,-0.432C0.182,-0.428 0.174,-0.423 0.167,-0.416C0.16,-0.409 0.157,-0.399 0.157,-0.388C0.157,-0.374 0.162,-0.363 0.172,-0.354C0.181,-0.345 0.194,-0.338 0.21,-0.333C0.225,-0.327 0.243,-0.322 0.263,-0.318C0.283,-0.314 0.304,-0.31 0.325,-0.305C0.346,-0.3 0.366,-0.295 0.386,-0.288C0.406,-0.281 0.424,-0.272 0.44,-0.261C0.455,-0.25 0.468,-0.235 0.478,-0.218C0.487,-0.201 0.492,-0.179 0.492,-0.154C0.492,-0.123 0.485,-0.097 0.471,-0.076C0.457,-0.055 0.439,-0.037 0.417,-0.024C0.394,-0.011 0.369,-0.001 0.342,0.005C0.315,0.011 0.288,0.014 0.261,0.014C0.228,0.014 0.198,0.01 0.171,0.003C0.143,-0.004 0.119,-0.016 0.099,-0.031C0.078,-0.046 0.062,-0.064 0.051,-0.087C0.039,-0.109 0.033,-0.135 0.032,-0.166L0.146,-0.166Z" style="fill:rgb(230,237,243);fill-rule:nonzero;"/>
        </g>
    </g>
    <g transform="matrix(1,0,0,1,-40,-0.219474)">
        <g transform="matrix(1,-0,-0,1,40,0.219474)">
            <path d="M150.314,1.609L156.92,3.044L158.136,9.695" style="fill:none;stroke:rgb(230,237,243);stroke-width:2.5px;"/>
            <path d="M133,19C133,19 147.78,11.61 156.92,3.044" style="fill:none;stroke:rgb(230,237,243);stroke-width:2.5px;stroke-linejoin:round;stroke-miterlimit:1.5;"/>
        </g>
    </g>
</svg>
